PathFileType	4	(X/Y/Z)	RBDS001static.trc
DataRate	CameraRate	NumFrames	NumMarkers	Units	OrigDataRate	OrigDataStartFrame	OrigNumFrames
150.000000	150.000000	4	48	mm	150.000000	112	150
Frame#	Time	L.Ankle			L.Ankle.Medial			L.ASIS			L.GTR			L.Heel.Bottom			L.Heel.Lateral			L.Heel.Top			L.HF			L.Iliac.Crest			L.Knee			L.Knee.Medial			L.MT1			L.MT2			L.MT5			L.PSIS			L.Shank.Bottom.Lateral			L.Shank.Bottom.Medial			L.Shank.Top.Lateral			L.Shank.Top.Medial			L.Thigh.Bottom.Lateral			L.Thigh.Bottom.Medial			L.Thigh.Top.Lateral			L.Thigh.Top.Medial			L.TT			R.Ankle			R.Ankle.Medial			R.ASIS			R.GTR			R.Heel.Bottom			R.Heel.Lateral			R.Heel.Top			R.HF			R.Iliac.Crest			R.Knee			R.Knee.Medial			R.MT1			R.MT2			R.MT5			R.PSIS			R.Shank.Bottom.Lateral			R.Shank.Bottom.Medial			R.Shank.Top.Lateral			R.Shank.Top.Medial			R.Thigh.Bottom.Lateral			R.Thigh.Bottom.Medial			R.Thigh.Top.Lateral			R.Thigh.Top.Medial			R.TT			
		X1	Y1	Z1	X2	Y2	Z2	X3	Y3	Z3	X4	Y4	Z4	X5	Y5	Z5	X6	Y6	Z6	X7	Y7	Z7	X8	Y8	Z8	X9	Y9	Z9	X10	Y10	Z10	X11	Y11	Z11	X12	Y12	Z12	X13	Y13	Z13	X14	Y14	Z14	X15	Y15	Z15	X16	Y16	Z16	X17	Y17	Z17	X18	Y18	Z18	X19	Y19	Z19	X20	Y20	Z20	X21	Y21	Z21	X22	Y22	Z22	X23	Y23	Z23	X24	Y24	Z24	X25	Y25	Z25	X26	Y26	Z26	X27	Y27	Z27	X28	Y28	Z28	X29	Y29	Z29	X30	Y30	Z30	X31	Y31	Z31	X32	Y32	Z32	X33	Y33	Z33	X34	Y34	Z34	X35	Y35	Z35	X36	Y36	Z36	X37	Y37	Z37	X38	Y38	Z38	X39	Y39	Z39	X40	Y40	Z40	X41	Y41	Z41	X42	Y42	Z42	X43	Y43	Z43	X44	Y44	Z44	X45	Y45	Z45	X46	Y46	Z46	X47	Y47	Z47	X48	Y48	Z48	

113	0.7466666666666667	705.1123657226563	108.8080291748047	1051.00634765625	725.6014404296875	119.292106628418	1129.089111328125	879.5380249023438	1067.009765625	1127.091674804688	801.6513061523438	965.3312377929688	1057.140869140625	633.320068359375	43.04867553710938	1085.133056640625	663.4382934570313	60.39543151855469	1046.812377929688	641.8396606445313	90.546630859375	1088.8662109375	734.9910278320313	490.4336547851563	1040.146606445313	818.3609008789063	1134.989135742188	1090.506591796875	752.7385864257813	550.5702514648438	1052.493041992188	733.0538940429688	539.853759765625	1162.407958984375	854.9763793945313	62.78182220458984	1133.469482421875	861.0712280273438	69.66065216064453	1088.631958007813	827.11181640625	56.56540298461914	1026.7021484375	701.8843383789063	1099.055297851563	1181.973266601563	713.5946655273438	191.6755676269531	1043.654052734375	670.645263671875	190.8076782226563	1071.97265625	709.173828125	271.4996337890625	1031.543823242188	665.8411865234375	274.876953125	1063.40234375	744.2039794921875	675.5436401367188	1043.40771484375	691.0445556640625	678.3496704101563	1094.036376953125	742.2535400390625	786.2867431640625	1040.549926757813	697.397705078125	788.9848022460938	1093.495361328125	786.6222534179688	461.5986938476563	1092.049560546875	701.7448120117188	110.6479568481445	1397.59033203125	720.0462646484375	116.62744140625	1314.738037109375	857.9921264648438	1060.406372070313	1337.637939453125	763.8873291015625	966.5673217773438	1385.302368164063	627.5247802734375	42.58427810668945	1360.094360351563	658.3783569335938	58.95144271850586	1403.301513671875	638.9415283203125	90.75588989257813	1359.630615234375	732.2349853515625	491.4748229980469	1397.893188476563	795.0549926757813	1135.58837890625	1359.070678710938	735.29931640625	553.2785034179688	1387.195922851563	731.759033203125	540.0844116210938	1271.002319335938	850.2003784179688	64.39588928222656	1319.66455078125	855.1055297851563	73.12628936767578	1362.043823242188	829.734130859375	56.35746765136719	1427.129638671875	698.1563720703125	1097.89013671875	1258.755981445313	702.3298950195313	190.5337524414063	1400.802856445313	660.9288330078125	194.3536376953125	1364.915283203125	698.7686767578125	271.2608032226563	1410.81103515625	659.0497436523438	273.9563598632813	1373.823120117188	735.1369018554688	651.170654296875	1396.861206054688	680.8225708007813	650.6177978515625	1346.234619140625	727.4049072265625	761.7766723632813	1399.31494140625	678.6907958984375	760.60888671875	1348.68505859375	781.5484619140625	462.5093688964844	1343.953247070313	
114	0.7533333333333334	705.1111450195313	108.813102722168	1051.012451171875	725.6024780273438	119.292610168457	1129.09765625	879.5689086914063	1066.995971679688	1127.0859375	801.6937866210938	965.3251342773438	1057.137817382813	633.3145141601563	43.05056381225586	1085.12890625	663.4468383789063	60.39222717285156	1046.809326171875	641.84130859375	90.54757690429688	1088.871826171875	734.9912109375	490.4294128417969	1040.148193359375	818.3917236328125	1134.9794921875	1090.507690429688	752.7530517578125	550.5676879882813	1052.483154296875	733.0691528320313	539.8421020507813	1162.401123046875	854.9767456054688	62.77901458740234	1133.468383789063	861.0636596679688	69.66105651855469	1088.6376953125	827.1154174804688	56.55636596679688	1026.709228515625	701.908935546875	1099.056396484375	1181.966186523438	713.5916748046875	191.67578125	1043.649780273438	670.6431884765625	190.8213043212891	1071.970825195313	709.1817626953125	271.4957275390625	1031.542846679688	665.85107421875	274.8813171386719	1063.399658203125	744.221435546875	675.5354614257813	1043.409301757813	691.0596313476563	678.3536987304688	1094.031005859375	742.2645874023438	786.2894287109375	1040.547241210938	697.4170532226563	788.991943359375	1093.494262695313	786.632080078125	461.5965881347656	1092.04443359375	701.7531127929688	110.6524887084961	1397.591552734375	720.0504760742188	116.629150390625	1314.734741210938	858.016357421875	1060.399536132813	1337.634399414063	763.9099731445313	966.562744140625	1385.289916992188	627.5211181640625	42.58660125732422	1360.10107421875	658.3856201171875	58.94338607788086	1403.2919921875	638.9423217773438	90.75508117675781	1359.630615234375	732.2372436523438	491.46044921875	1397.89111328125	795.0733032226563	1135.585205078125	1359.061157226563	735.302734375	553.2745361328125	1387.19482421875	731.763671875	540.083740234375	1270.989868164063	850.2009887695313	64.3939208984375	1319.660766601563	855.1016235351563	73.12143707275391	1362.052734375	829.73583984375	56.35877990722656	1427.130249023438	698.1873779296875	1097.888061523438	1258.736694335938	702.3333740234375	190.5303039550781	1400.793823242188	660.9335327148438	194.3499908447266	1364.92333984375	698.7776489257813	271.2652893066406	1410.81103515625	659.0501708984375	273.9557495117188	1373.817016601563	735.1363525390625	651.1708984375	1396.849243164063	680.83447265625	650.6212158203125	1346.214233398438	727.4091796875	761.775390625	1399.318115234375	678.7075805664063	760.6062622070313	1348.67138671875	781.5516357421875	462.5043334960938	1343.953735351563	
115	0.76	705.11669921875	108.8115539550781	1050.998901367188	725.59912109375	119.3026428222656	1129.104736328125	879.606201171875	1066.999267578125	1127.074584960938	801.7264404296875	965.319580078125	1057.121337890625	633.3182373046875	43.05355834960938	1085.140014648438	663.447021484375	60.39470291137695	1046.811889648438	641.8402099609375	90.55194854736328	1088.869506835938	735.01513671875	490.4307250976563	1040.142333984375	818.4093627929688	1134.979736328125	1090.491088867188	752.7542114257813	550.57763671875	1052.476318359375	733.0797729492188	539.8529663085938	1162.398315429688	854.9794311523438	62.78319931030273	1133.47021484375	861.0704956054688	69.65982055664063	1088.640869140625	827.1173706054688	56.56105041503906	1026.712158203125	701.9371948242188	1099.055786132813	1181.953369140625	713.5943603515625	191.6780090332031	1043.6455078125	670.6512451171875	190.8202362060547	1071.97900390625	709.1865844726563	271.4964294433594	1031.539916992188	665.8598022460938	274.885498046875	1063.392456054688	744.2416381835938	675.5391845703125	1043.406982421875	691.079345703125	678.3566284179688	1094.021240234375	742.2935791015625	786.288330078125	1040.547485351563	697.43701171875	788.9912109375	1093.47705078125	786.6432495117188	461.5996398925781	1092.048583984375	701.7537231445313	110.6524047851563	1397.586669921875	720.0491333007813	116.6352005004883	1314.729125976563	858.0297241210938	1060.402099609375	1337.638793945313	763.9277954101563	966.5626831054688	1385.296752929688	627.5277099609375	42.59159851074219	1360.0986328125	658.3869018554688	58.9466438293457	1403.294311523438	638.9489135742188	90.75530242919922	1359.629638671875	732.241455078125	491.4762268066406	1397.885498046875	795.0853271484375	1135.588134765625	1359.050048828125	735.3101806640625	553.271240234375	1387.184204101563	731.7726440429688	540.0812377929688	1270.984008789063	850.2112426757813	64.39817810058594	1319.662353515625	855.1002197265625	73.12062072753906	1362.046997070313	829.7273559570313	56.35543441772461	1427.127197265625	698.212158203125	1097.888916015625	1258.73291015625	702.3384399414063	190.5363922119141	1400.795776367188	660.9345703125	194.3522338867188	1364.92041015625	698.7755126953125	271.2664184570313	1410.805419921875	659.0474853515625	273.9645080566406	1373.815551757813	735.14892578125	651.1725463867188	1396.845458984375	680.8421020507813	650.6262817382813	1346.214599609375	727.4216918945313	761.7830810546875	1399.304809570313	678.7117919921875	760.6111450195313	1348.661254882813	781.5572509765625	462.5026550292969	1343.945434570313	
116	0.7666666666666667	705.1134033203125	108.820182800293	1050.996826171875	725.6011352539063	119.2956695556641	1129.108032226563	879.635498046875	1066.994018554688	1127.072998046875	801.7572021484375	965.3146362304688	1057.11474609375	633.3214721679688	43.05403518676758	1085.140502929688	663.4409790039063	60.39855575561523	1046.807861328125	641.8416748046875	90.54861450195313	1088.865966796875	735.1675415039063	490.4817199707031	1040.094116210938	818.4375	1134.969970703125	1090.483764648438	752.7664184570313	550.5716552734375	1052.47705078125	733.0825805664063	539.8585205078125	1162.385131835938	854.984619140625	62.77873229980469	1133.470336914063	861.07080078125	69.65888214111328	1088.642578125	827.1205444335938	56.56171035766602	1026.718994140625	701.9642944335938	1099.062377929688	1181.941162109375	713.600830078125	191.6768646240234	1043.648193359375	670.6552734375	190.8265533447266	1071.970581054688	709.1948852539063	271.5032348632813	1031.539306640625	665.8577270507813	274.8906555175781	1063.400512695313	744.263916015625	675.5498657226563	1043.401611328125	691.0906982421875	678.369140625	1094.015502929688	742.3062133789063	786.288330078125	1040.534301757813	697.4612426757813	788.9974975585938	1093.473388671875	786.6533813476563	461.5929565429688	1092.036376953125	701.7520141601563	110.6506958007813	1397.587158203125	720.0531616210938	116.6252899169922	1314.72509765625	858.0501098632813	1060.404418945313	1337.63330078125	763.9407958984375	966.55908203125	1385.26953125	627.529541015625	42.5838508605957	1360.091552734375	658.386962890625	58.95458984375	1403.290161132813	638.9464111328125	90.75708770751953	1359.625122070313	732.2467651367188	491.470947265625	1397.873901367188	795.1033935546875	1135.5888671875	1359.034301757813	735.32373046875	553.2802734375	1387.171508789063	731.7771606445313	540.0859985351563	1270.975463867188	850.201171875	64.39920806884766	1319.662841796875	855.1065673828125	73.12596893310547	1362.044189453125	829.7392578125	56.36076354980469	1427.121826171875	698.2341918945313	1097.886352539063	1258.721923828125	702.3360595703125	190.5369262695313	1400.791625976563	660.9347534179688	194.3589935302734	1364.916259765625	698.7816162109375	271.2713928222656	1410.8017578125	659.0562744140625	273.9644165039063	1373.819702148438	735.15478515625	651.1707763671875	1396.838500976563	680.8589477539063	650.6273803710938	1346.198852539063	727.431640625	761.782958984375	1399.294067382813	678.7290649414063	760.6221313476563	1348.654663085938	781.568115234375	462.5122985839844	1343.937744140625	
